<svg width="1003" height="827" viewBox="0 0 1003 827" xmlns="http://www.w3.org/2000/svg" xmlns:xlink="http://www.w3.org/1999/xlink" xml:space="preserve" overflow="hidden"><g transform="translate(-2161 -534)"><path d="M0 0 473.56 752.11" stroke="#E8944A" stroke-width="68.75" stroke-linecap="round" stroke-linejoin="round" stroke-miterlimit="10" fill="none" fill-rule="evenodd" transform="matrix(-1 0 0 1 2672.06 573.5)"/><path d="M0 0 736.13 35.689" stroke="#E8944A" stroke-width="68.75" stroke-linecap="round" stroke-linejoin="round" stroke-miterlimit="10" fill="none" fill-rule="evenodd" transform="matrix(-1 0 0 1 2936.63 1289.5)"/><path d="M0 0 405.802 302.51" stroke="#E8944A" stroke-width="68.75" stroke-linecap="round" stroke-linejoin="round" stroke-miterlimit="10" fill="none" fill-rule="evenodd" transform="matrix(-1 0 0 1 2675.3 573.5)"/><path d="M0 0 71.1423 449.6" stroke="#E8944A" stroke-width="68.75" stroke-linecap="round" stroke-linejoin="round" stroke-miterlimit="10" fill="none" fill-rule="evenodd" transform="matrix(1 0 0 -1 2195.5 1325.1)"/><path d="M2935.68 1283.43 2269 875" stroke="#E8944A" stroke-width="45.8333" stroke-linecap="round" stroke-linejoin="round" stroke-miterlimit="10" fill="none" fill-rule="evenodd"/><path d="M0 0 854.835 149.708" stroke="#E8944A" stroke-width="45.8333" stroke-linecap="round" stroke-linejoin="round" stroke-miterlimit="10" fill="none" fill-rule="evenodd" transform="matrix(-1 0 0 1 3123.84 726)"/><path d="M2672 573 2936.26 1287.03" stroke="#D9513C" stroke-width="77.9167" stroke-linecap="round" stroke-linejoin="round" stroke-miterlimit="10" fill="none" fill-rule="evenodd"/><path d="M0 0 188.156 558.137" stroke="#D9513C" stroke-width="77.9167" stroke-linecap="round" stroke-linejoin="round" stroke-miterlimit="10" fill="none" fill-rule="evenodd" transform="matrix(-1 0 0 1 3124.16 726)"/><path d="M2675 573 3124.03 723.415" stroke="#D9513C" stroke-width="77.9167" stroke-linecap="round" stroke-linejoin="round" stroke-miterlimit="10" fill="none" fill-rule="evenodd"/></g></svg>
