ISO-10303-21;
HEADER;
FILE_NAME('Open CASCADE Shape Model','2026-09-29T21:02:55',('Author'),(
    'Open CASCADE'),'Open CASCADE STEP processor 7.8','Open CASCADE 7.8'
  ,'Unknown');
FILE_DESCRIPTION(('Open CASCADE Model'),'2;1');
FILE_SCHEMA(('AUTOMOTIVE_DESIGN { 1 0 10303 214 1 1 1 1 }'));
ENDSEC;
DATA;
#1 = APPLICATION_PROTOCOL_DEFINITION('international standard',
  'automotive_design',2000,#2);
#2 = APPLICATION_CONTEXT(
  'core data for automotive mechanical design processes');
#3 = SHAPE_DEFINITION_REPRESENTATION(#4,#10);
#4 = PRODUCT_DEFINITION_SHAPE('','',#5);
#5 = PRODUCT_DEFINITION('design','',#6,#9);
#6 = PRODUCT_DEFINITION_FORMATION('','',#7);
#7 = PRODUCT('Open CASCADE STEP translator 7.8 2',
  'Open CASCADE STEP translator 7.8 2','',(#8));
#8 = PRODUCT_CONTEXT('',#2,'mechanical');
#9 = PRODUCT_DEFINITION_CONTEXT('part definition',#2,'design');
#10 = SHAPE_REPRESENTATION('',(#11,#15,#19,#23,#27,#31),#35);
#11 = AXIS2_PLACEMENT_3D('',#12,#13,#14);
#12 = CARTESIAN_POINT('',(0.,0.,0.));
#13 = DIRECTION('',(0.,0.,1.));
#14 = DIRECTION('',(1.,0.,-0.));
#15 = AXIS2_PLACEMENT_3D('',#16,#17,#18);
#16 = CARTESIAN_POINT('',(0.,0.,0.));
#17 = DIRECTION('',(0.,0.,1.));
#18 = DIRECTION('',(1.,0.,-0.));
#19 = AXIS2_PLACEMENT_3D('',#20,#21,#22);
#20 = CARTESIAN_POINT('',(0.,0.,0.));
#21 = DIRECTION('',(0.,0.,1.));
#22 = DIRECTION('',(1.,0.,-0.));
#23 = AXIS2_PLACEMENT_3D('',#24,#25,#26);
#24 = CARTESIAN_POINT('',(0.,0.,0.));
#25 = DIRECTION('',(0.,0.,1.));
#26 = DIRECTION('',(1.,0.,-0.));
#27 = AXIS2_PLACEMENT_3D('',#28,#29,#30);
#28 = CARTESIAN_POINT('',(0.,0.,0.));
#29 = DIRECTION('',(0.,0.,1.));
#30 = DIRECTION('',(1.,0.,-0.));
#31 = AXIS2_PLACEMENT_3D('',#32,#33,#34);
#32 = CARTESIAN_POINT('',(0.,0.,0.));
#33 = DIRECTION('',(0.,0.,1.));
#34 = DIRECTION('',(1.,0.,-0.));
#35 = ( GEOMETRIC_REPRESENTATION_CONTEXT(3) 
GLOBAL_UNCERTAINTY_ASSIGNED_CONTEXT((#39)) GLOBAL_UNIT_ASSIGNED_CONTEXT(
(#36,#37,#38)) REPRESENTATION_CONTEXT('Context #1',
  '3D Context with UNIT and UNCERTAINTY') );
#36 = ( LENGTH_UNIT() NAMED_UNIT(*) SI_UNIT(.MILLI.,.METRE.) );
#37 = ( NAMED_UNIT(*) PLANE_ANGLE_UNIT() SI_UNIT($,.RADIAN.) );
#38 = ( NAMED_UNIT(*) SI_UNIT($,.STERADIAN.) SOLID_ANGLE_UNIT() );
#39 = UNCERTAINTY_MEASURE_WITH_UNIT(LENGTH_MEASURE(1.E-07),#36,
  'distance_accuracy_value','confusion accuracy');
#40 = PRODUCT_RELATED_PRODUCT_CATEGORY('part',$,(#7));
#41 = SHAPE_DEFINITION_REPRESENTATION(#42,#48);
#42 = PRODUCT_DEFINITION_SHAPE('','',#43);
#43 = PRODUCT_DEFINITION('design','',#44,#47);
#44 = PRODUCT_DEFINITION_FORMATION('','',#45);
#45 = PRODUCT('Open CASCADE STEP translator 7.8 2.1',
  'Open CASCADE STEP translator 7.8 2.1','',(#46));
#46 = PRODUCT_CONTEXT('',#2,'mechanical');
#47 = PRODUCT_DEFINITION_CONTEXT('part definition',#2,'design');
#48 = ADVANCED_BREP_SHAPE_REPRESENTATION('',(#11,#49),#250);
#49 = MANIFOLD_SOLID_BREP('',#50);
#50 = CLOSED_SHELL('',(#51,#242,#246));
#51 = ADVANCED_FACE('',(#52),#76,.T.);
#52 = FACE_BOUND('',#53,.T.);
#53 = EDGE_LOOP('',(#54,#167,#191,#241));
#54 = ORIENTED_EDGE('',*,*,#55,.T.);
#55 = EDGE_CURVE('',#56,#56,#58,.T.);
#56 = VERTEX_POINT('',#57);
#57 = CARTESIAN_POINT('',(10.,0.,0.));
#58 = SURFACE_CURVE('',#59,(#75,#143),.PCURVE_S1.);
#59 = B_SPLINE_CURVE_WITH_KNOTS('',14,(#60,#61,#62,#63,#64,#65,#66,#67,
    #68,#69,#70,#71,#72,#73,#74),.UNSPECIFIED.,.T.,.F.,(15,15),(0.,1.),
  .PIECEWISE_BEZIER_KNOTS.);
#60 = CARTESIAN_POINT('',(10.,1.694389290557E-15,0.));
#61 = CARTESIAN_POINT('',(10.000000000001,4.487989505132,0.));
#62 = CARTESIAN_POINT('',(7.830856388001,8.975980666871,0.));
#63 = CARTESIAN_POINT('',(3.492566390978,12.328193465745,0.));
#64 = CARTESIAN_POINT('',(-2.366106147381,13.408975958233,0.));
#65 = CARTESIAN_POINT('',(-8.447756604046,11.489768610146,0.));
#66 = CARTESIAN_POINT('',(-13.09041701656,6.658852452583,0.));
#67 = CARTESIAN_POINT('',(-14.83828602051,2.007993771258E-10,0.));
#68 = CARTESIAN_POINT('',(-13.09041701656,-6.65885245295,0.));
#69 = CARTESIAN_POINT('',(-8.447756604051,-11.48976860986,0.));
#70 = CARTESIAN_POINT('',(-2.366106147377,-13.4089759584,0.));
#71 = CARTESIAN_POINT('',(3.492566390977,-12.32819346565,0.));
#72 = CARTESIAN_POINT('',(7.830856388002,-8.975980666902,0.));
#73 = CARTESIAN_POINT('',(10.000000000001,-4.487989505125,0.));
#74 = CARTESIAN_POINT('',(10.,-5.151657343867E-15,0.));
#75 = PCURVE('',#76,#137);
#76 = ( BOUNDED_SURFACE() B_SPLINE_SURFACE(14,3,(
    (#77,#78,#79,#80)
    ,(#81,#82,#83,#84)
    ,(#85,#86,#87,#88)
    ,(#89,#90,#91,#92)
    ,(#93,#94,#95,#96)
    ,(#97,#98,#99,#100)
    ,(#101,#102,#103,#104)
    ,(#105,#106,#107,#108)
    ,(#109,#110,#111,#112)
    ,(#113,#114,#115,#116)
    ,(#117,#118,#119,#120)
    ,(#121,#122,#123,#124)
    ,(#125,#126,#127,#128)
    ,(#129,#130,#131,#132)
    ,(#133,#134,#135,#136
)),.UNSPECIFIED.,.T.,.F.,.F.) B_SPLINE_SURFACE_WITH_KNOTS((15,15),(4,4),
  (0.,1.),(0.,1.),.PIECEWISE_BEZIER_KNOTS.) 
GEOMETRIC_REPRESENTATION_ITEM() RATIONAL_B_SPLINE_SURFACE((
    (1.,1.,1.,1.)
    ,(1.,1.,1.,1.)
    ,(1.,1.,1.,1.)
    ,(1.,1.,1.,1.)
    ,(1.,1.,1.,1.)
    ,(1.,1.,1.,1.)
    ,(1.,1.,1.,1.)
    ,(1.,1.,1.,1.)
    ,(1.,1.,1.,1.)
    ,(1.,1.,1.,1.)
    ,(1.,1.,1.,1.)
    ,(1.,1.,1.,1.)
    ,(1.,1.,1.,1.)
    ,(1.,1.,1.,1.)
,(1.,1.,1.,1.))) REPRESENTATION_ITEM('') SURFACE() );
#77 = CARTESIAN_POINT('',(10.,1.694389290557E-15,0.));
#78 = CARTESIAN_POINT('',(28.893330741146,-9.473031012135,
    22.629909709723));
#79 = CARTESIAN_POINT('',(-20.47466465864,32.263094925916,
    19.845332385653));
#80 = CARTESIAN_POINT('',(6.,4.396062423308E-15,36.));
#81 = CARTESIAN_POINT('',(10.000000000001,4.487989505132,0.));
#82 = CARTESIAN_POINT('',(32.08194552347,-4.391592965247,22.629909709724
    ));
#83 = CARTESIAN_POINT('',(-31.33439701593,27.392633916303,
    19.845332385655));
#84 = CARTESIAN_POINT('',(6.000000000002,2.692793703079,36.000000000001)
  );
#85 = CARTESIAN_POINT('',(7.830856388001,8.975980666871,0.));
#86 = CARTESIAN_POINT('',(29.003183102107,2.74468342795,22.629909709717)
  );
#87 = CARTESIAN_POINT('',(-37.75288457656,15.52384248266,19.845332385642
    ));
#88 = CARTESIAN_POINT('',(4.698513832795,5.385588400124,35.999999999996)
  );
#89 = CARTESIAN_POINT('',(3.492566390978,12.328193465745,0.));
#90 = CARTESIAN_POINT('',(18.850089513856,10.649836155235,
    22.629909709732));
#91 = CARTESIAN_POINT('',(-36.98183826911,-2.11071585348,19.845332385679
    ));
#92 = CARTESIAN_POINT('',(2.095539834604,7.396916079442,35.999999999999)
  );
#93 = CARTESIAN_POINT('',(-2.366106147381,13.408975958233,0.));
#94 = CARTESIAN_POINT('',(2.690304633472,17.42346958829,22.62990970972)
  );
#95 = CARTESIAN_POINT('',(-27.60160682354,-22.18549466824,
    19.845332385606));
#96 = CARTESIAN_POINT('',(-1.419663688466,8.045385574949,36.000000000032
    ));
#97 = CARTESIAN_POINT('',(-8.447756604046,11.489768610146,0.));
#98 = CARTESIAN_POINT('',(-16.24516248062,21.011651067918,
    22.629909709702));
#99 = CARTESIAN_POINT('',(-10.50566379238,-39.72401691353,
    19.845332385716));
#100 = CARTESIAN_POINT('',(-5.068653962364,6.893861166074,
    35.999999999898));
#101 = CARTESIAN_POINT('',(-13.09041701656,6.658852452583,0.));
#102 = CARTESIAN_POINT('',(-33.09161115584,19.939947655291,
    22.629909709783));
#103 = CARTESIAN_POINT('',(10.689550707437,-49.46006401781,
    19.845332385578));
#104 = CARTESIAN_POINT('',(-7.854250210027,3.995311471567,
    36.000000000201));
#105 = CARTESIAN_POINT('',(-14.83828602051,2.007993771258E-10,0.));
#106 = CARTESIAN_POINT('',(-42.87275056201,14.056354363908,
    22.629909709628));
#107 = CARTESIAN_POINT('',(30.380893037418,-47.87290304141,
    19.845332385732));
#108 = CARTESIAN_POINT('',(-8.902971612207,1.023590101568E-10,
    35.999999999714));
#109 = CARTESIAN_POINT('',(-13.09041701656,-6.65885245295,0.));
#110 = CARTESIAN_POINT('',(-42.55353852437,4.861237616671,
    22.629909709829));
#111 = CARTESIAN_POINT('',(42.914829024617,-35.00740934786,
    19.845332385575));
#112 = CARTESIAN_POINT('',(-7.854250210031,-3.995311471754,
    36.000000000312));
#113 = CARTESIAN_POINT('',(-8.447756604051,-11.48976860986,0.));
#114 = CARTESIAN_POINT('',(-32.57160263536,-5.006479009308,
    22.629909709631));
#115 = CARTESIAN_POINT('',(45.09866050885,-14.78613773147,
    19.845332385719));
#116 = CARTESIAN_POINT('',(-5.068653962358,-6.893861165932,
    35.999999999732));
#117 = CARTESIAN_POINT('',(-2.366106147377,-13.4089759584,0.));
#118 = CARTESIAN_POINT('',(-16.36324213064,-12.94063020586,
    22.629909709784));
#119 = CARTESIAN_POINT('',(37.290652806836,6.91791322043,19.845332385606
    ));
#120 = CARTESIAN_POINT('',(-1.419663688472,-8.045385575038,
    36.000000000181));
#121 = CARTESIAN_POINT('',(3.492566390977,-12.32819346565,0.));
#122 = CARTESIAN_POINT('',(1.332285660222,-17.26687410196,
    22.629909709691));
#123 = CARTESIAN_POINT('',(22.680013138243,24.646916055041,
    19.845332385678));
#124 = CARTESIAN_POINT('',(2.095539834608,-7.396916079399,
    35.999999999906));
#125 = CARTESIAN_POINT('',(7.830856388002,-8.975980666902,0.));
#126 = CARTESIAN_POINT('',(16.248721618849,-17.58107251097,
    22.629909709735));
#127 = CARTESIAN_POINT('',(5.686052869779,35.00569011676,19.845332385643
    ));
#128 = CARTESIAN_POINT('',(4.698513832793,-5.38558840014,36.000000000036
    ));
#129 = CARTESIAN_POINT('',(10.000000000001,-4.487989505125,0.));
#130 = CARTESIAN_POINT('',(25.704715958836,-14.55446905902,
    22.62990970972));
#131 = CARTESIAN_POINT('',(-9.614932301364,37.133555935546,
    19.845332385655));
#132 = CARTESIAN_POINT('',(6.000000000002,-2.692793703076,
    35.999999999992));
#133 = CARTESIAN_POINT('',(10.,-5.151657343867E-15,0.));
#134 = CARTESIAN_POINT('',(28.893330741146,-9.473031012135,
    22.629909709723));
#135 = CARTESIAN_POINT('',(-20.47466465864,32.263094925916,
    19.845332385653));
#136 = CARTESIAN_POINT('',(6.,-1.108024932951E-14,36.));
#137 = DEFINITIONAL_REPRESENTATION('',(#138),#142);
#138 = LINE('',#139,#140);
#139 = CARTESIAN_POINT('',(0.,0.));
#140 = VECTOR('',#141,1.);
#141 = DIRECTION('',(1.,0.));
#142 = ( GEOMETRIC_REPRESENTATION_CONTEXT(2) 
PARAMETRIC_REPRESENTATION_CONTEXT() REPRESENTATION_CONTEXT('2D SPACE',''
  ) );
#143 = PCURVE('',#144,#149);
#144 = PLANE('',#145);
#145 = AXIS2_PLACEMENT_3D('',#146,#147,#148);
#146 = CARTESIAN_POINT('',(10.,1.694389290557E-15,0.));
#147 = DIRECTION('',(0.,0.,1.));
#148 = DIRECTION('',(-1.,2.630283793641E-17,0.));
#149 = DEFINITIONAL_REPRESENTATION('',(#150),#166);
#150 = B_SPLINE_CURVE_WITH_KNOTS('',14,(#151,#152,#153,#154,#155,#156,
    #157,#158,#159,#160,#161,#162,#163,#164,#165),.UNSPECIFIED.,.F.,.F.,
  (15,15),(0.,1.),.PIECEWISE_BEZIER_KNOTS.);
#151 = CARTESIAN_POINT('',(0.,0.));
#152 = CARTESIAN_POINT('',(-1.250555214938E-12,-4.487989505132));
#153 = CARTESIAN_POINT('',(2.169143611999,-8.975980666871));
#154 = CARTESIAN_POINT('',(6.507433609022,-12.32819346574));
#155 = CARTESIAN_POINT('',(12.366106147381,-13.40897595823));
#156 = CARTESIAN_POINT('',(18.447756604046,-11.48976861014));
#157 = CARTESIAN_POINT('',(23.090417016564,-6.658852452583));
#158 = CARTESIAN_POINT('',(24.838286020513,-2.007970294191E-10));
#159 = CARTESIAN_POINT('',(23.090417016561,6.65885245295));
#160 = CARTESIAN_POINT('',(18.447756604051,11.489768609866));
#161 = CARTESIAN_POINT('',(12.366106147377,13.408975958408));
#162 = CARTESIAN_POINT('',(6.507433609023,12.328193465659));
#163 = CARTESIAN_POINT('',(2.169143611998,8.975980666902));
#164 = CARTESIAN_POINT('',(-1.197264509756E-12,4.487989505125));
#165 = CARTESIAN_POINT('',(-1.7763568394E-15,6.846046634425E-15));
#166 = ( GEOMETRIC_REPRESENTATION_CONTEXT(2) 
PARAMETRIC_REPRESENTATION_CONTEXT() REPRESENTATION_CONTEXT('2D SPACE',''
  ) );
#167 = ORIENTED_EDGE('',*,*,#168,.T.);
#168 = EDGE_CURVE('',#56,#169,#171,.T.);
#169 = VERTEX_POINT('',#170);
#170 = CARTESIAN_POINT('',(6.,0.,36.));
#171 = SEAM_CURVE('',#172,(#177,#184),.PCURVE_S1.);
#172 = ( BOUNDED_CURVE() B_SPLINE_CURVE(3,(#173,#174,#175,#176),
.UNSPECIFIED.,.F.,.F.) B_SPLINE_CURVE_WITH_KNOTS((4,4),(0.,1.),
.PIECEWISE_BEZIER_KNOTS.) CURVE() GEOMETRIC_REPRESENTATION_ITEM() 
RATIONAL_B_SPLINE_CURVE((1.,1.,1.,1.)) REPRESENTATION_ITEM('') );
#173 = CARTESIAN_POINT('',(10.,1.694389290557E-15,0.));
#174 = CARTESIAN_POINT('',(28.893330741146,-9.473031012135,
    22.629909709723));
#175 = CARTESIAN_POINT('',(-20.47466465864,32.263094925916,
    19.845332385653));
#176 = CARTESIAN_POINT('',(6.,4.396062423308E-15,36.));
#177 = PCURVE('',#76,#178);
#178 = DEFINITIONAL_REPRESENTATION('',(#179),#183);
#179 = LINE('',#180,#181);
#180 = CARTESIAN_POINT('',(1.,0.));
#181 = VECTOR('',#182,1.);
#182 = DIRECTION('',(0.,1.));
#183 = ( GEOMETRIC_REPRESENTATION_CONTEXT(2) 
PARAMETRIC_REPRESENTATION_CONTEXT() REPRESENTATION_CONTEXT('2D SPACE',''
  ) );
#184 = PCURVE('',#76,#185);
#185 = DEFINITIONAL_REPRESENTATION('',(#186),#190);
#186 = LINE('',#187,#188);
#187 = CARTESIAN_POINT('',(0.,0.));
#188 = VECTOR('',#189,1.);
#189 = DIRECTION('',(0.,1.));
#190 = ( GEOMETRIC_REPRESENTATION_CONTEXT(2) 
PARAMETRIC_REPRESENTATION_CONTEXT() REPRESENTATION_CONTEXT('2D SPACE',''
  ) );
#191 = ORIENTED_EDGE('',*,*,#192,.F.);
#192 = EDGE_CURVE('',#169,#169,#193,.T.);
#193 = SURFACE_CURVE('',#194,(#210,#217),.PCURVE_S1.);
#194 = B_SPLINE_CURVE_WITH_KNOTS('',14,(#195,#196,#197,#198,#199,#200,
    #201,#202,#203,#204,#205,#206,#207,#208,#209),.UNSPECIFIED.,.T.,.F.,
  (15,15),(0.,1.),.PIECEWISE_BEZIER_KNOTS.);
#195 = CARTESIAN_POINT('',(6.,4.396062423308E-15,36.));
#196 = CARTESIAN_POINT('',(6.000000000002,2.692793703079,36.000000000001
    ));
#197 = CARTESIAN_POINT('',(4.698513832795,5.385588400124,35.999999999996
    ));
#198 = CARTESIAN_POINT('',(2.095539834604,7.396916079442,35.999999999999
    ));
#199 = CARTESIAN_POINT('',(-1.419663688466,8.045385574949,
    36.000000000032));
#200 = CARTESIAN_POINT('',(-5.068653962364,6.893861166074,
    35.999999999898));
#201 = CARTESIAN_POINT('',(-7.854250210027,3.995311471567,
    36.000000000201));
#202 = CARTESIAN_POINT('',(-8.902971612207,1.023590101568E-10,
    35.999999999714));
#203 = CARTESIAN_POINT('',(-7.854250210031,-3.995311471754,
    36.000000000312));
#204 = CARTESIAN_POINT('',(-5.068653962358,-6.893861165932,
    35.999999999732));
#205 = CARTESIAN_POINT('',(-1.419663688472,-8.045385575038,
    36.000000000181));
#206 = CARTESIAN_POINT('',(2.095539834608,-7.396916079399,
    35.999999999906));
#207 = CARTESIAN_POINT('',(4.698513832793,-5.38558840014,36.000000000036
    ));
#208 = CARTESIAN_POINT('',(6.000000000002,-2.692793703076,
    35.999999999992));
#209 = CARTESIAN_POINT('',(6.,-1.108024932951E-14,36.));
#210 = PCURVE('',#76,#211);
#211 = DEFINITIONAL_REPRESENTATION('',(#212),#216);
#212 = LINE('',#213,#214);
#213 = CARTESIAN_POINT('',(0.,1.));
#214 = VECTOR('',#215,1.);
#215 = DIRECTION('',(1.,0.));
#216 = ( GEOMETRIC_REPRESENTATION_CONTEXT(2) 
PARAMETRIC_REPRESENTATION_CONTEXT() REPRESENTATION_CONTEXT('2D SPACE',''
  ) );
#217 = PCURVE('',#218,#223);
#218 = PLANE('',#219);
#219 = AXIS2_PLACEMENT_3D('',#220,#221,#222);
#220 = CARTESIAN_POINT('',(6.,4.396062423308E-15,36.));
#221 = DIRECTION('',(1.184237893012E-15,-1.484987348825E-15,1.));
#222 = DIRECTION('',(-1.,-3.015755255258E-16,1.184237893012E-15));
#223 = DEFINITIONAL_REPRESENTATION('',(#224),#240);
#224 = B_SPLINE_CURVE_WITH_KNOTS('',14,(#225,#226,#227,#228,#229,#230,
    #231,#232,#233,#234,#235,#236,#237,#238,#239),.UNSPECIFIED.,.F.,.F.,
  (15,15),(0.,1.),.PIECEWISE_BEZIER_KNOTS.);
#225 = CARTESIAN_POINT('',(0.,0.));
#226 = CARTESIAN_POINT('',(-1.961097950698E-12,-2.692793703079));
#227 = CARTESIAN_POINT('',(1.301486167205,-5.385588400124));
#228 = CARTESIAN_POINT('',(3.904460165396,-7.396916079442));
#229 = CARTESIAN_POINT('',(7.419663688466,-8.045385574949));
#230 = CARTESIAN_POINT('',(11.068653962364,-6.893861166074));
#231 = CARTESIAN_POINT('',(13.854250210027,-3.995311471567));
#232 = CARTESIAN_POINT('',(14.902971612207,-1.023591084658E-10));
#233 = CARTESIAN_POINT('',(13.854250210031,3.995311471754));
#234 = CARTESIAN_POINT('',(11.068653962358,6.893861165932));
#235 = CARTESIAN_POINT('',(7.419663688472,8.045385575038));
#236 = CARTESIAN_POINT('',(3.904460165392,7.396916079399));
#237 = CARTESIAN_POINT('',(1.301486167207,5.38558840014));
#238 = CARTESIAN_POINT('',(-2.328803816454E-12,2.692793703076));
#239 = CARTESIAN_POINT('',(4.440892098501E-15,1.547631175282E-14));
#240 = ( GEOMETRIC_REPRESENTATION_CONTEXT(2) 
PARAMETRIC_REPRESENTATION_CONTEXT() REPRESENTATION_CONTEXT('2D SPACE',''
  ) );
#241 = ORIENTED_EDGE('',*,*,#168,.F.);
#242 = ADVANCED_FACE('',(#243),#144,.F.);
#243 = FACE_BOUND('',#244,.T.);
#244 = EDGE_LOOP('',(#245));
#245 = ORIENTED_EDGE('',*,*,#55,.F.);
#246 = ADVANCED_FACE('',(#247),#218,.T.);
#247 = FACE_BOUND('',#248,.T.);
#248 = EDGE_LOOP('',(#249));
#249 = ORIENTED_EDGE('',*,*,#192,.T.);
#250 = ( GEOMETRIC_REPRESENTATION_CONTEXT(3) 
GLOBAL_UNCERTAINTY_ASSIGNED_CONTEXT((#254)) GLOBAL_UNIT_ASSIGNED_CONTEXT
((#251,#252,#253)) REPRESENTATION_CONTEXT('Context #1',
  '3D Context with UNIT and UNCERTAINTY') );
#251 = ( LENGTH_UNIT() NAMED_UNIT(*) SI_UNIT(.MILLI.,.METRE.) );
#252 = ( NAMED_UNIT(*) PLANE_ANGLE_UNIT() SI_UNIT($,.RADIAN.) );
#253 = ( NAMED_UNIT(*) SI_UNIT($,.STERADIAN.) SOLID_ANGLE_UNIT() );
#254 = UNCERTAINTY_MEASURE_WITH_UNIT(LENGTH_MEASURE(1.E-07),#251,
  'distance_accuracy_value','confusion accuracy');
#255 = CONTEXT_DEPENDENT_SHAPE_REPRESENTATION(#256,#258);
#256 = ( REPRESENTATION_RELATIONSHIP('','',#48,#10) 
REPRESENTATION_RELATIONSHIP_WITH_TRANSFORMATION(#257) 
SHAPE_REPRESENTATION_RELATIONSHIP() );
#257 = ITEM_DEFINED_TRANSFORMATION('','',#11,#15);
#258 = PRODUCT_DEFINITION_SHAPE('Placement','Placement of an item',#259
  );
#259 = NEXT_ASSEMBLY_USAGE_OCCURRENCE('1','','',#5,#43,$);
#260 = PRODUCT_RELATED_PRODUCT_CATEGORY('part',$,(#45));
#261 = SHAPE_DEFINITION_REPRESENTATION(#262,#268);
#262 = PRODUCT_DEFINITION_SHAPE('','',#263);
#263 = PRODUCT_DEFINITION('design','',#264,#267);
#264 = PRODUCT_DEFINITION_FORMATION('','',#265);
#265 = PRODUCT('Open CASCADE STEP translator 7.8 2.2',
  'Open CASCADE STEP translator 7.8 2.2','',(#266));
#266 = PRODUCT_CONTEXT('',#2,'mechanical');
#267 = PRODUCT_DEFINITION_CONTEXT('part definition',#2,'design');
#268 = GEOMETRICALLY_BOUNDED_WIREFRAME_SHAPE_REPRESENTATION('',(#11,#269
    ),#278);
#269 = GEOMETRIC_CURVE_SET('',(#270));
#270 = TRIMMED_CURVE('',#271,(#276,PARAMETER_VALUE(0.)),(#277,
    PARAMETER_VALUE(6.28318530718)),.T.,.PARAMETER.);
#271 = ELLIPSE('',#272,10.,10.);
#272 = AXIS2_PLACEMENT_3D('',#273,#274,#275);
#273 = CARTESIAN_POINT('',(0.,0.,0.));
#274 = DIRECTION('',(0.,0.,1.));
#275 = DIRECTION('',(1.,0.,-0.));
#276 = CARTESIAN_POINT('',(10.,0.,0.));
#277 = CARTESIAN_POINT('',(10.,0.,0.));
#278 = ( GEOMETRIC_REPRESENTATION_CONTEXT(3) 
GLOBAL_UNCERTAINTY_ASSIGNED_CONTEXT((#282)) GLOBAL_UNIT_ASSIGNED_CONTEXT
((#279,#280,#281)) REPRESENTATION_CONTEXT('Context #1',
  '3D Context with UNIT and UNCERTAINTY') );
#279 = ( LENGTH_UNIT() NAMED_UNIT(*) SI_UNIT(.MILLI.,.METRE.) );
#280 = ( NAMED_UNIT(*) PLANE_ANGLE_UNIT() SI_UNIT($,.RADIAN.) );
#281 = ( NAMED_UNIT(*) SI_UNIT($,.STERADIAN.) SOLID_ANGLE_UNIT() );
#282 = UNCERTAINTY_MEASURE_WITH_UNIT(LENGTH_MEASURE(1.E-07),#279,
  'distance_accuracy_value','confusion accuracy');
#283 = CONTEXT_DEPENDENT_SHAPE_REPRESENTATION(#284,#286);
#284 = ( REPRESENTATION_RELATIONSHIP('','',#268,#10) 
REPRESENTATION_RELATIONSHIP_WITH_TRANSFORMATION(#285) 
SHAPE_REPRESENTATION_RELATIONSHIP() );
#285 = ITEM_DEFINED_TRANSFORMATION('','',#11,#19);
#286 = PRODUCT_DEFINITION_SHAPE('Placement','Placement of an item',#287
  );
#287 = NEXT_ASSEMBLY_USAGE_OCCURRENCE('2','','',#5,#263,$);
#288 = PRODUCT_RELATED_PRODUCT_CATEGORY('part',$,(#265));
#289 = SHAPE_DEFINITION_REPRESENTATION(#290,#296);
#290 = PRODUCT_DEFINITION_SHAPE('','',#291);
#291 = PRODUCT_DEFINITION('design','',#292,#295);
#292 = PRODUCT_DEFINITION_FORMATION('','',#293);
#293 = PRODUCT('Open CASCADE STEP translator 7.8 2.3',
  'Open CASCADE STEP translator 7.8 2.3','',(#294));
#294 = PRODUCT_CONTEXT('',#2,'mechanical');
#295 = PRODUCT_DEFINITION_CONTEXT('part definition',#2,'design');
#296 = GEOMETRICALLY_BOUNDED_WIREFRAME_SHAPE_REPRESENTATION('',(#11,#297
    ),#306);
#297 = GEOMETRIC_CURVE_SET('',(#298));
#298 = TRIMMED_CURVE('',#299,(#304,PARAMETER_VALUE(0.)),(#305,
    PARAMETER_VALUE(6.28318530718)),.T.,.PARAMETER.);
#299 = ELLIPSE('',#300,14.,8.);
#300 = AXIS2_PLACEMENT_3D('',#301,#302,#303);
#301 = CARTESIAN_POINT('',(0.,0.,12.));
#302 = DIRECTION('',(0.,0.,1.));
#303 = DIRECTION('',(1.,0.,-0.));
#304 = CARTESIAN_POINT('',(14.,0.,12.));
#305 = CARTESIAN_POINT('',(14.,0.,12.));
#306 = ( GEOMETRIC_REPRESENTATION_CONTEXT(3) 
GLOBAL_UNCERTAINTY_ASSIGNED_CONTEXT((#310)) GLOBAL_UNIT_ASSIGNED_CONTEXT
((#307,#308,#309)) REPRESENTATION_CONTEXT('Context #1',
  '3D Context with UNIT and UNCERTAINTY') );
#307 = ( LENGTH_UNIT() NAMED_UNIT(*) SI_UNIT(.MILLI.,.METRE.) );
#308 = ( NAMED_UNIT(*) PLANE_ANGLE_UNIT() SI_UNIT($,.RADIAN.) );
#309 = ( NAMED_UNIT(*) SI_UNIT($,.STERADIAN.) SOLID_ANGLE_UNIT() );
#310 = UNCERTAINTY_MEASURE_WITH_UNIT(LENGTH_MEASURE(1.E-07),#307,
  'distance_accuracy_value','confusion accuracy');
#311 = CONTEXT_DEPENDENT_SHAPE_REPRESENTATION(#312,#314);
#312 = ( REPRESENTATION_RELATIONSHIP('','',#296,#10) 
REPRESENTATION_RELATIONSHIP_WITH_TRANSFORMATION(#313) 
SHAPE_REPRESENTATION_RELATIONSHIP() );
#313 = ITEM_DEFINED_TRANSFORMATION('','',#11,#23);
#314 = PRODUCT_DEFINITION_SHAPE('Placement','Placement of an item',#315
  );
#315 = NEXT_ASSEMBLY_USAGE_OCCURRENCE('3','','',#5,#291,$);
#316 = PRODUCT_RELATED_PRODUCT_CATEGORY('part',$,(#293));
#317 = SHAPE_DEFINITION_REPRESENTATION(#318,#324);
#318 = PRODUCT_DEFINITION_SHAPE('','',#319);
#319 = PRODUCT_DEFINITION('design','',#320,#323);
#320 = PRODUCT_DEFINITION_FORMATION('','',#321);
#321 = PRODUCT('Open CASCADE STEP translator 7.8 2.4',
  'Open CASCADE STEP translator 7.8 2.4','',(#322));
#322 = PRODUCT_CONTEXT('',#2,'mechanical');
#323 = PRODUCT_DEFINITION_CONTEXT('part definition',#2,'design');
#324 = GEOMETRICALLY_BOUNDED_WIREFRAME_SHAPE_REPRESENTATION('',(#11,#325
    ),#334);
#325 = GEOMETRIC_CURVE_SET('',(#326));
#326 = TRIMMED_CURVE('',#327,(#332,PARAMETER_VALUE(0.)),(#333,
    PARAMETER_VALUE(6.28318530718)),.T.,.PARAMETER.);
#327 = ELLIPSE('',#328,12.,9.);
#328 = AXIS2_PLACEMENT_3D('',#329,#330,#331);
#329 = CARTESIAN_POINT('',(0.,0.,24.));
#330 = DIRECTION('',(0.,-0.,1.));
#331 = DIRECTION('',(1.110223024625E-16,1.,0.));
#332 = CARTESIAN_POINT('',(1.33226762955E-15,12.,24.));
#333 = CARTESIAN_POINT('',(1.33226762955E-15,12.,24.));
#334 = ( GEOMETRIC_REPRESENTATION_CONTEXT(3) 
GLOBAL_UNCERTAINTY_ASSIGNED_CONTEXT((#338)) GLOBAL_UNIT_ASSIGNED_CONTEXT
((#335,#336,#337)) REPRESENTATION_CONTEXT('Context #1',
  '3D Context with UNIT and UNCERTAINTY') );
#335 = ( LENGTH_UNIT() NAMED_UNIT(*) SI_UNIT(.MILLI.,.METRE.) );
#336 = ( NAMED_UNIT(*) PLANE_ANGLE_UNIT() SI_UNIT($,.RADIAN.) );
#337 = ( NAMED_UNIT(*) SI_UNIT($,.STERADIAN.) SOLID_ANGLE_UNIT() );
#338 = UNCERTAINTY_MEASURE_WITH_UNIT(LENGTH_MEASURE(1.E-07),#335,
  'distance_accuracy_value','confusion accuracy');
#339 = CONTEXT_DEPENDENT_SHAPE_REPRESENTATION(#340,#342);
#340 = ( REPRESENTATION_RELATIONSHIP('','',#324,#10) 
REPRESENTATION_RELATIONSHIP_WITH_TRANSFORMATION(#341) 
SHAPE_REPRESENTATION_RELATIONSHIP() );
#341 = ITEM_DEFINED_TRANSFORMATION('','',#11,#27);
#342 = PRODUCT_DEFINITION_SHAPE('Placement','Placement of an item',#343
  );
#343 = NEXT_ASSEMBLY_USAGE_OCCURRENCE('4','','',#5,#319,$);
#344 = PRODUCT_RELATED_PRODUCT_CATEGORY('part',$,(#321));
#345 = SHAPE_DEFINITION_REPRESENTATION(#346,#352);
#346 = PRODUCT_DEFINITION_SHAPE('','',#347);
#347 = PRODUCT_DEFINITION('design','',#348,#351);
#348 = PRODUCT_DEFINITION_FORMATION('','',#349);
#349 = PRODUCT('Open CASCADE STEP translator 7.8 2.5',
  'Open CASCADE STEP translator 7.8 2.5','',(#350));
#350 = PRODUCT_CONTEXT('',#2,'mechanical');
#351 = PRODUCT_DEFINITION_CONTEXT('part definition',#2,'design');
#352 = GEOMETRICALLY_BOUNDED_WIREFRAME_SHAPE_REPRESENTATION('',(#11,#353
    ),#362);
#353 = GEOMETRIC_CURVE_SET('',(#354));
#354 = TRIMMED_CURVE('',#355,(#360,PARAMETER_VALUE(0.)),(#361,
    PARAMETER_VALUE(6.28318530718)),.T.,.PARAMETER.);
#355 = ELLIPSE('',#356,6.,6.);
#356 = AXIS2_PLACEMENT_3D('',#357,#358,#359);
#357 = CARTESIAN_POINT('',(0.,0.,36.));
#358 = DIRECTION('',(0.,0.,1.));
#359 = DIRECTION('',(1.,0.,-0.));
#360 = CARTESIAN_POINT('',(6.,0.,36.));
#361 = CARTESIAN_POINT('',(6.,0.,36.));
#362 = ( GEOMETRIC_REPRESENTATION_CONTEXT(3) 
GLOBAL_UNCERTAINTY_ASSIGNED_CONTEXT((#366)) GLOBAL_UNIT_ASSIGNED_CONTEXT
((#363,#364,#365)) REPRESENTATION_CONTEXT('Context #1',
  '3D Context with UNIT and UNCERTAINTY') );
#363 = ( LENGTH_UNIT() NAMED_UNIT(*) SI_UNIT(.MILLI.,.METRE.) );
#364 = ( NAMED_UNIT(*) PLANE_ANGLE_UNIT() SI_UNIT($,.RADIAN.) );
#365 = ( NAMED_UNIT(*) SI_UNIT($,.STERADIAN.) SOLID_ANGLE_UNIT() );
#366 = UNCERTAINTY_MEASURE_WITH_UNIT(LENGTH_MEASURE(1.E-07),#363,
  'distance_accuracy_value','confusion accuracy');
#367 = CONTEXT_DEPENDENT_SHAPE_REPRESENTATION(#368,#370);
#368 = ( REPRESENTATION_RELATIONSHIP('','',#352,#10) 
REPRESENTATION_RELATIONSHIP_WITH_TRANSFORMATION(#369) 
SHAPE_REPRESENTATION_RELATIONSHIP() );
#369 = ITEM_DEFINED_TRANSFORMATION('','',#11,#31);
#370 = PRODUCT_DEFINITION_SHAPE('Placement','Placement of an item',#371
  );
#371 = NEXT_ASSEMBLY_USAGE_OCCURRENCE('5','','',#5,#347,$);
#372 = PRODUCT_RELATED_PRODUCT_CATEGORY('part',$,(#349));
ENDSEC;
END-ISO-10303-21;
